<?xml version="1.0" encoding="UTF-8"?>
<svg id="Layer_1" xmlns="http://www.w3.org/2000/svg" version="1.1" viewBox="0 0 64 64">
  <!-- Generator: Adobe Illustrator 29.5.1, SVG Export Plug-In . SVG Version: 2.1.0 Build 141)  -->
  <path d="M55,41.6c-3.3,5.2-4.8,7.1-6.7,7.1s-1.5-3.5-1.5-6.2v-18.5h6c4,0,4-7,0-7h-6v-3c0-5-6-5-6,0v3h-13v-4c0-4-6-4-6,0v4h-5c-4,0-4,7,0,7h5v18c-1,3.2-4.8,6.6-8.5,6.6s-3.8-1.7-3.8-3.9,1.5-4,3.8-5.6c1.5-1.1,2.9-1.7,4.5-2.2,4-1.9,1-7.9-3-5.8-1.7.9-3.6,1.5-5.3,2.7-4.1,3-6.5,5.8-6.5,10.9s4.9,10.3,10.3,10.3,6.6-1.5,9.3-3.8c.9,2.5,2.8,3.9,6.5,3.9s8.4-4.1,11.6-8.7c.1,4.8,1.1,8.7,7.5,8.7s7.1-1.7,12.3-10c2.3-3.6-3.2-7.1-5.5-3.5ZM29.3,48.7c-1.8,0-1.6-2.3-1.6-5v-19.7h13v10.3l-4.7,7.3c0,0,0,.1,0,.2-2,3.1-3.4,6.9-6.6,6.9Z"/>
</svg>